<?xml version="1.0" encoding="UTF-8"?>
<svg id="Layer_2" data-name="Layer 2" xmlns="http://www.w3.org/2000/svg" viewBox="0 0 209.07 88.68">
  <defs>
    <style>
      .cls-1 {
        fill: #f170a4;
        stroke-width: 0px;
      }
    </style>
  </defs>
  <g id="Style_Guide" data-name="Style Guide">
    <g id="Logo">
      <path class="cls-1" d="m105.53,62.29c-1.18,1.36-2.42,2.66-3.97,3.62-.2.12-.4.23-.65.37-.02-.17-.05-.27-.04-.36.27-1.59.55-3.18.82-4.77.35-2.04.68-4.09,1.05-6.13.29-1.62.63-3.22.94-4.83.12-.64-.19-1.32-.8-1.54-.54-.19-1.07-.15-1.6,0-1.51.39-2.71,1.22-3.13,2.76-.7,2.55-1.24,5.14-1.82,7.72-.2.89-.49,1.75-.88,2.57-.36.74-.77,1.43-1.38,1.98-.56.51-1.36.66-2.01.28s-.82-1.11-.92-1.8c-.15-1.02-.01-2.03.11-3.04.33-2.81.97-5.54,1.93-8.19.08-.22.16-.45.2-.69.2-1.04-.58-1.94-1.64-1.98-1.55-.06-2.71.62-3.47,1.99-.26.47-.47.98-.69,1.47-.7,1.58-1.27,3.23-1.56,4.94-.18,1.06-.33,2.13-.46,3.2-.04.33-.17.54-.43.73-1.18.83-2.41,1.58-3.72,2.17-1.32.59-2.67,1.04-4.15,1.02-.95-.01-2.01-.65-2.49-2,.09-.03.19-.06.28-.09.11-.04.23-.07.34-.11,2.42-.84,4.57-2.09,6.24-4.08,1.34-1.61,2.15-3.41,1.8-5.63-.2-1.3-.94-2.5-2.01-3.26-1.89-1.36-3.99-1.47-6.17-.68-1.76.63-3.06,1.87-4.06,3.41-1.56,2.41-2.3,5.07-2.33,7.93,0,.58.09,1.15.1,1.73,0,.18-.03.43-.14.54-.78.7-1.61,1.35-2.57,1.79-.73.33-1.57,0-1.81-.76-.16-.49-.25-1.01-.28-1.52-.12-2.13.29-4.21.65-6.3.28-1.57.77-3.12.58-4.76-.09-.79-.33-1.47-.9-2.03-.3-.29-.66-.47-1.07-.49-1.5-.1-2.76.34-3.63,1.63-.18.26-.35.53-.5.81-.87,1.6-1.73,3.2-2.59,4.8-.27.49-.53.99-.79,1.48-.12.22-.23.43-.58.3,0-.1-.03-.22-.01-.34.21-1.34.45-2.68.62-4.02.11-.89.2-1.79.17-2.68-.03-.85-.35-1.65-1.28-1.9-1.15-.31-2.24-.02-2.95.92-.34.46-.55.97-.65,1.53-.4,2.2-.79,4.4-1.18,6.59-.1.59-.2,1.18-.26,1.77-.07.67-.1,1.35-.16,2.03-.03.28-.11.53-.37.71-1.19.82-2.4,1.59-3.75,2.1-.41.15-.84.27-1.27.32-.55.06-1.05-.3-1.16-.84-.19-.91-.21-1.84-.06-2.74.46-2.75.98-5.5,1.45-8.25.15-.9.2-1.82.29-2.73.04-.45-.17-.77-.53-1.01-.2-.13-.41-.26-.64-.32-1.01-.28-2-.23-2.97.17-.52.22-.9.7-1,1.26-.64,3.35-1.3,6.7-1.94,10.05-.21,1.11-.47,2.19-1.19,3.1-.48.61-1.06,1.08-1.84,1.25-.6.13-1.01-.05-1.31-.57-.35-.6-.4-1.25-.3-1.91.11-.79.3-1.56.43-2.35.54-3.31,1.08-6.61,1.61-9.92.08-.49,0-.76-.42-.92-1.02-.39-2.05-.54-3.04.12-.98.65-1.5,1.7-1.9,2.84-.35.99-.6,2.01-.77,3.05-.41,2.44-.82,4.88-1.16,7.34-.14,1.01-.15,2.04-.14,3.06,0,.58.07,1.16.25,1.7.5,1.6,1.5,2.49,3.08,2.55,1.45.06,2.71-.55,3.9-1.4.97-.69,1.84-1.51,2.62-2.42.24-.27.48-.53.69-.77.35.91.62,1.81,1.04,2.64.57,1.15,1.53,1.77,2.86,1.68.52-.03,1.03-.09,1.54-.21,1.99-.44,3.79-1.34,5.54-2.37.11-.06.23-.1.32-.14.17.56.27,1.08.49,1.56.5,1.1,1.79,1.63,2.96,1.3.75-.22,1.21-.75,1.55-1.44,1.63-3.25,3.27-6.49,4.91-9.74.23-.46.47-.93.7-1.39.07-.14.14-.3.41-.19,0,.2,0,.41-.03.62-.04.34-.08.67-.13,1.01-.22,1.67-.33,3.36-.32,5.04,0,1.86.15,3.7,1.22,5.23.41.59,1.32,1.01,2.03.94,1.04-.1,2.03-.36,2.99-.77,1.33-.57,2.52-1.38,3.67-2.25.17-.13.35-.24.52-.35.09.1.13.14.17.19,1.55,2.16,3.71,3.13,6.32,3.19,2.03.05,3.96-.54,5.86-1.32,1.02-.42,1.93-1.03,2.85-1.63.13-.09.28-.14.45-.23.14.22.25.41.36.59,1.3,2.18,3.96,3.21,6.38,2.26,1-.39,1.88-.97,2.7-1.64.07-.06.14-.11.28-.22-.04.23-.06.36-.09.49-.08.33-.17.65-.26.98-.08.32-.25.56-.54.78-1.74,1.34-3.45,2.72-4.91,4.36-2.48,2.79-5.09,5.49-6.66,8.9-.47,1.02-.69,2.07-.63,3.19.11,1.74,1.41,3.2,3.11,3.57,1.21.27,2.43.25,3.64,0,2.34-.48,4.15-1.79,5.61-3.64,1.99-2.52,3.05-5.55,4.03-8.6.48-1.5.73-3.06.97-4.61.05-.34.19-.53.46-.69.41-.24.81-.51,1.21-.77,2.38-1.6,4.67-3.29,6.63-5.4h.01c.89-.97,1.25-2.32.96-3.59h0c-.27-1.16-1.76-1.5-2.5-.56-.58.75-1.13,1.44-1.33,1.66Zm-31.26-5.95c.15-.8.33-1.6.62-2.36.46-1.21,1.31-2.03,2.62-2.3,1.03-.22,1.58.13,1.87,1.15.26.92.14,1.78-.47,2.54-1.04,1.3-2.32,2.24-3.94,2.66-.24.06-.5.06-.82.1.04-.64.01-1.22.12-1.78Zm20.2,18.19c-.54,2.3-1.27,4.53-2.43,6.6-.52.93-1.15,1.77-1.97,2.46-.59.5-1.25.85-2.05.89-.85.03-1.23-.37-.99-1.18.2-.68.46-1.37.83-1.97,1.6-2.63,3.59-4.93,6.02-6.83.17-.13.35-.24.59-.4,0,.21.02.33,0,.43Z"/>
      <path class="cls-1" d="m189.06,62.15c-.03-1.69-1.95-2.63-3.31-1.63-1.05.77-2.16,1.53-3,1.93s-1.65.75-2.51.94c-1.83.4-3.19-.49-3.56-2.22-.18-.85-.19-1.74-.23-2.61-.02-.54.04-1.08.07-1.61.05-1.3.1-2.59.15-3.89.02-.63.16-1.19.61-1.69.56-.62,1.06-1.3,1.53-2,.28-.42.6-.54,1.09-.54,2.46.02,4.92,0,7.37.01.43,0,.83-.07,1.16-.38.62-.59.78-1.79.32-2.51-.13-.2-.35-.32-.6-.33-.47-.02-.94-.07-1.41-.09-1.58-.06-3.15-.1-4.73-.15-.09,0-.18-.03-.34-.06.2-.33.35-.6.52-.87.65-1.07,1.27-2.15,1.81-3.28,1.18-2.5,1.93-5.03,1.28-7.72-.3-1.24-.76-2.4-1.73-3.29-.97-.89-2.07-1.17-3.32-.72-.97.35-1.7,1.03-2.35,1.81-.58.7-1.1,1.45-1.54,2.25-1.52,2.81-2.52,5.8-3.28,8.87-.19.75-.35,1.5-.53,2.27-.76,0-1.48,0-2.2,0-.9.01-1.79,0-2.69.07-.41.03-.81.2-1.2.34-.15.06-.31.2-.39.34-.34.6,0,1.56.63,1.85.23.1.49.15.75.19.93.13,1.86.24,2.79.38.55.08,1.09.21,1.67.33-.02.35-.04.67-.06.98-.1,1.35-.29,2.7-.29,4.06,0,1.75.13,3.51.22,5.26.02.31-.01.57-.22.83-.87,1.07-1.75,2.13-2.83,3-.63.5-1.27.98-2.07,1.18-.71.17-1.12-.09-1.26-.8-.25-1.23-.14-2.47.06-3.69.29-1.81.64-3.61.98-5.42.19-1.02.26-2.05.18-3.09-.05-.75-.69-1.34-1.44-1.35-.34,0-.68-.01-1.02,0-.8.05-1.44-.19-1.87-.92-.35-.59-.92-.81-1.59-.75-.8.07-1.58.2-2.33.5-3.54,1.41-5.89,4.45-7.74,8.02-.44.84-.68,1.77-.91,2.69-.09.34-.25.58-.55.78-1.34.91-2.66,1.84-3.99,2.77-1.92,1.34-3.89,2.59-6.06,3.49-2.62,1.07-5.31,1.57-8.14,1.17-.67-.09-1.33-.26-1.95-.54-2.22-1-3.34-2.74-3.9-4.82-.55-2.06-.49-4.15-.19-6.24.33-2.3.94-4.54,1.74-6.72,1.33-3.58,3.07-6.94,5.53-9.88,1.29-1.54,2.78-2.87,4.62-3.75,1.6-.77,3.27-1.05,5-.55,1.44.42,2.43,1.33,2.88,2.79.34,1.09.36,2.2.15,3.31-.41,2.2-1.56,3.96-3.31,5.32-1.29,1-2.79,1.55-4.44,1.67-.65.05-1.28-.12-1.89-.37-.86-.35-1.44-.06-1.71.78-.07.23-.12.47-.13.7-.02.56,0,1.12-.01,1.68,0,.64.27,1.13.82,1.43.33.18.68.34,1.04.43,2,.45,3.93.22,5.78-.64,3.04-1.4,5.3-3.66,6.99-6.51,1.44-2.44,2.12-5.04,1.77-7.84-.3-2.41-1.48-4.63-3.44-6.08s-4.17-1.93-6.58-1.74c-2.38.18-4.56.95-6.61,2.13-2.93,1.68-5.3,4.01-7.35,6.68s-3.55,5.38-4.78,8.36-2.26,6.34-2.53,9.74c-.12,1.48-.08,2.95.14,4.41.38,2.59,1.29,4.98,2.89,7.07,2.45,3.19,5.68,4.89,9.73,4.92,1.8.01,3.59-.13,5.36-.48,2.41-.47,4.7-1.25,6.83-2.49,1.99-1.16,3.81-2.56,5.51-4.11.21-.2.44-.37.69-.58.13.24.22.42.31.59,1.1,2.04,3.31,3.35,5.95,2.79,1.37-.29,2.6-.91,3.71-1.74.65-.48,1.24-1.04,1.86-1.56.31.55.58,1.13.92,1.66.65,1.02,1.54,1.73,2.8,1.84.92.08,1.79-.14,2.61-.52,1.91-.88,3.4-2.28,4.77-3.85.1-.12.21-.23.35-.39.11.25.2.44.28.64.47,1.08,1.09,2.06,1.99,2.84,1.06.93,2.47,1.31,3.87,1.09,1.12-.17,2.17-.57,3.16-1.09,1.8-.95,3.92-2.18,5.81-3.24.67-.37,1.07-1.08,1.06-1.84h0Zm-12.17-18.12c.51-2.23,1.01-4.47,1.81-6.63.28-.76.63-1.51.99-2.24.14-.28.35-.54.58-.76.54-.5,1.27-.34,1.56.35.2.47.24.96.17,1.47-.15,1-.52,1.92-.9,2.84-.8,1.94-1.81,3.78-2.87,5.58-.05.08-.12.16-.19.27-.23-.01-.47-.01-.7-.04-.17-.02-.34-.07-.56-.12.05-.26.08-.49.13-.72Zm-16.39,12.53c-.28,1.3-.53,2.62-.91,3.89-.35,1.17-.88,2.28-1.8,3.13-.27.25-.62.45-.96.56-.63.21-1.27-.05-1.6-.62-.45-.76-.56-1.6-.44-2.47.07-.51.06-1.04.16-1.54.52-2.43,1.59-4.59,3.36-6.36.69-.7,1.51-1.24,2.5-1.46.21-.05.42-.05.74-.09-.36,1.72-.68,3.34-1.03,4.96Z"/>
      <path class="cls-1" d="m24.29,61.46c-1.46.42-2.91.84-4.37,1.25-1.31.37-2.61.74-3.92,1.08-.9.24-1.82.28-2.73.11-.75-.14-.89-.35-.86-1.1.04-.98.11-1.96.09-2.93,0-.57.21-.9.68-1.2,2.4-1.5,4.55-3.31,6.57-5.28,1.31-1.29,2.52-2.67,3.66-4.12,1.93-2.47,3.58-5.1,4.8-7.99,1.09-2.59,1.72-5.26,1.57-8.09-.05-.89-.21-1.74-.53-2.57-.63-1.62-1.72-2.75-3.47-3.06-1.18-.21-2.35-.02-3.47.4-1.89.7-3.48,1.86-4.91,3.25-3,2.92-5.1,6.43-6.69,10.27-1.96,4.7-3,9.63-3.47,14.68-.03.37-.15.63-.46.84-1.06.71-2.1,1.46-3.16,2.18-.96.65-1.92,1.29-2.89,1.93-.35.23-.61.52-.67.95-.16,1.15.1,2.19.93,3.03.51.52.93.61,1.56.26.82-.45,1.62-.95,2.41-1.46.6-.39,1.18-.81,1.77-1.22l.15.05c0,.35-.04.72,0,1.06.13.82.22,1.67.48,2.46.58,1.79,1.81,2.9,3.71,3.14.79.1,1.6.13,2.39.06,2.64-.21,5.21-.79,7.72-1.6,1.37-.44,2.71-.97,4.07-1.41,1.4-.45,2.17-1.53,1.99-2.99-.21-1.66-1.36-2.44-2.92-1.99Zm-11.05-10.44c.54-3.44,1.46-6.78,2.85-9.99,1.02-2.35,2.22-4.61,3.88-6.58.5-.59,1.09-1.11,1.68-1.61.26-.23.61-.39.95-.5.74-.25,1.29.05,1.54.8.26.77.25,1.57.18,2.37-.2,2.46-1.25,4.6-2.45,6.68-1.68,2.89-3.71,5.53-5.89,8.06-.78.91-1.6,1.78-2.41,2.67-.14.16-.31.3-.47.45-.05-.02-.1-.04-.15-.05.1-.76.19-1.53.31-2.29Z"/>
      <path class="cls-1" d="m78.37,37.26c.66.13,1.33.22,1.99.33l.11.15c-.18,1.61-.21,3.21,0,4.82.13.96.36,1.9.92,2.73.6.88,1.74,1.26,2.73.88.76-.29,1.48-.7,2.21-1.06.35-.17.68-.38,1.07-.59.02.19.03.29.05.38.07.31.09.64.22.93.28.66.95.72,1.36.13.11-.16.2-.35.27-.53.79-1.88,1.92-3.54,3.25-5.07.12-.14.27-.25.4-.37.04.03.07.06.11.09-.07.18-.16.35-.22.53-.26.73-.53,1.46-.75,2.2-.24.81-.07,1.59.28,2.33.45.96,1.6,1.42,2.57,1.02.67-.28,1.29-.68,1.93-1.04.18-.1.35-.23.53-.35,1.41,1.88,3.16,1.78,4.64,1.32,1.1-.34,2.07-.95,2.96-1.67.01-.01.03-.02.04-.03.72-.58.71-1.75-.06-2.26,0,0,0,0-.01,0-.2.15-.37.3-.55.42-.65.43-1.28.89-1.95,1.27-.56.31-1.16.52-1.82.53-.59,0-.97-.26-1.19-.82.33-.14.65-.25.96-.4,1.11-.53,2.04-1.26,2.56-2.42.38-.84.36-1.68-.21-2.44-.58-.77-1.4-1.03-2.33-.95-1.22.11-2.05.83-2.65,1.83-.57.94-.88,1.96-.89,3.07,0,.21,0,.48-.12.62-.43.51-.97.9-1.62,1.1-.37.11-.71-.11-.74-.49s-.03-.77.07-1.13c.22-.87.49-1.72.77-2.58.18-.56.28-1.13.24-1.72-.04-.76-.59-1.09-1.29-.78-.47.2-.91.51-1.28.86-.6.58-1.13,1.24-1.69,1.86-.14.15-.22.37-.55.42.1-.23.17-.41.26-.58.5-.98,1.03-1.94,1.51-2.93.76-1.58,1.46-3.19,1.88-4.91.17-.7.23-1.41.18-2.12-.06-.84-.76-1.56-1.6-1.59-.73-.02-1.39.19-1.94.65-.33.28-.64.61-.9.96-.71.94-1.12,2.03-1.41,3.15-.31,1.21-.56,2.44-.82,3.64-.16-.04-.34-.12-.54-.13-.7-.05-1.4-.07-2.09-.11-.13,0-.26-.03-.46-.05.13-.24.23-.4.32-.57.51-.91,1.01-1.82,1.21-2.86.18-.93.08-1.82-.42-2.64-.59-.99-1.62-1.15-2.44-.33-.44.45-.82.98-1.13,1.54-.71,1.28-1.11,2.67-1.44,4.09-.07.28-.31.48-.6.49-.62.02-1.23.05-1.85.1-.27.02-.5.15-.51.48,0,.31.14.54.47.6Zm21.33,2.45c.26-.39.64-.58,1.12-.57.25,0,.42.09.51.33.12.31.17.61.05.93-.28.73-1.32,1.44-2.19,1.47-.07-.78.07-1.5.51-2.15Zm-9.85-2.87c.13-.8.31-1.6.46-2.4.26-1.31.85-2.48,1.5-3.63.16-.29.33-.59.66-.74.28.13.22.37.23.58.02.83-.2,1.63-.48,2.39-.58,1.57-1.23,3.11-1.85,4.66-.21.53-.45,1.05-.68,1.58-.05,0-.09-.01-.14-.02.1-.81.18-1.62.31-2.42Zm-6.1-4.67c.07-.14.15-.3.27-.39.13-.1.33-.19.47-.15.13.04.29.24.3.38.02.33,0,.68-.09,1-.3,1.06-.87,2.01-1.39,2.97-.16.3-.38.3-.71.1.28-1.35.57-2.67,1.15-3.9Zm-1.23,7.73c0-.38.12-.69.35-.99.75-.98.74-.99,2-.99.58,0,1.16.01,1.73,0,.37-.01.74-.07,1.13-.11-.07,1.3-.14,2.6-.21,3.91-.02.34-.14.6-.42.81-.73.56-1.49,1.07-2.34,1.42-.29.12-.61.21-.92.24-.71.05-1.14-.28-1.3-.97-.08-.35-.11-.71-.11-1.07,0-.76.07-1.51.08-2.27Z"/>
      <path class="cls-1" d="m116.82,41.44c-.73-1.24-1.48-2.46-2.18-3.72-2.61-4.66-4.53-9.59-5.87-14.76-1.15-4.47-1.83-9.03-2.13-13.63-.16-2.43-.19-4.87-.28-7.3,0-.18-.01-.36-.02-.54.05,0,.1,0,.15.01.4.85.74,1.73,1.21,2.54,1.46,2.53,3.48,4.56,5.78,6.33,2.94,2.27,6.19,4.03,9.52,5.63,3.13,1.51,6.28,2.97,9.39,4.51,2.45,1.22,4.8,2.63,6.91,4.4.29.24.59.46.89.69h0s.01.03.02.04c0,0,.02,0,.03,0l-.05-.05c-.13-.26-.23-.55-.4-.78-1.17-1.59-2.6-2.92-4.16-4.12-2.19-1.69-4.55-3.1-6.99-4.39-2.72-1.44-5.46-2.83-8.17-4.28-2.47-1.31-4.88-2.72-7.13-4.39-1.46-1.09-2.84-2.26-4.07-3.6-1-1.09-1.9-2.26-2.69-3.51-.11-.17-.16-.43-.51-.41-.05.17-.13.35-.16.54-.16.8-.32,1.6-.46,2.41-.14.82-.3,1.65-.39,2.47-.09.81-.09,1.63-.15,2.45-.18,2.31-.12,4.63.04,6.94.04.54.03,1.08.11,1.61.18,1.16.38,2.32.6,3.47.68,3.61,1.81,7.07,3.36,10.39,1.66,3.57,3.79,6.84,6.35,9.83.48.56,1.01,1.07,1.52,1.6.02-.03.05-.06.08-.07-.02-.06-.04-.13-.07-.19-.03-.04-.06-.09-.1-.13Z"/>
      <path class="cls-1" d="m208.64,4.43c-.2-1.34-.47-2.67-.71-4-.02-.12-.12-.22-.23-.43-.18.25-.31.41-.42.59-1.19,1.94-2.67,3.63-4.36,5.15-2.38,2.13-5.03,3.87-7.83,5.39-2.77,1.5-5.57,2.95-8.37,4.42-2.12,1.11-4.22,2.27-6.22,3.59-2.29,1.51-4.43,3.21-6.14,5.38-.27.34-.47.73-.7,1.09.16-.1.34-.18.49-.3.92-.7,1.81-1.44,2.76-2.1,2.01-1.39,4.17-2.51,6.37-3.57,3.16-1.53,6.35-3.01,9.5-4.57,3.08-1.53,6.03-3.29,8.67-5.52,2.56-2.15,4.63-4.67,5.9-7.8.07,0,.15,0,.22.01-.03,1.04-.05,2.07-.09,3.11-.04,1.22-.08,2.43-.15,3.65-.05.82-.12,1.63-.21,2.44-.07.69-.18,1.38-.25,2.07-.1.87-.14,1.75-.27,2.61-.51,3.4-1.22,6.75-2.23,10.04-1.37,4.49-3.22,8.77-5.54,12.84-.55.97-1.13,1.93-1.7,2.89-.14.16-.38.28-.23.68.17-.22.28-.37.39-.52.35-.38.72-.75,1.06-1.14,2.16-2.45,3.99-5.14,5.53-8.02,1.93-3.61,3.31-7.43,4.17-11.43.51-2.36.86-4.75.96-7.17.13-3.13.1-6.27-.36-9.38Z"/>
      <path class="cls-1" d="m120.71,34.03c-2.44-3.38-4.27-7.06-5.7-10.96-.6-1.65-1.19-3.3-1.8-4.95-.06-.17-.16-.32-.28-.58-1.22,5.6,1.41,13.49,8.09,17.06-.1-.19-.18-.39-.3-.56Z"/>
      <path class="cls-1" d="m201.08,17.68c-.06-.02-.12-.03-.18-.05-.09.2-.19.39-.26.59-.37,1.01-.73,2.03-1.09,3.04-.76,2.15-1.58,4.27-2.56,6.33-1.08,2.28-2.38,4.43-3.84,6.49-.12.16-.27.31-.27.63,3.2-1.83,5.45-4.39,6.93-7.65,1.36-3,1.69-6.14,1.27-9.38Z"/>
      <path class="cls-1" d="m116.9,41.83c.07.05.13.09.2.14-.04-.07-.08-.14-.12-.21-.04.01-.06.04-.08.07Z"/>
      <path class="cls-1" d="m173.63,25.65s.01-.03.02-.04c0,0,0,0,0,0,0,0,0,0,0,0,0,.01-.01.03-.02.04Z"/>
    </g>
  </g>
</svg>