<svg width="36" height="32" viewBox="0 0 36 32" fill="none" xmlns="http://www.w3.org/2000/svg">
<path d="M25.724 19.4432C25.058 19.1548 24.1516 17.8403 23.5196 16.2462C23.0948 15.1742 21.8287 12.0051 18.3975 11.7633C18.3291 11.7485 18.2583 11.7398 18.1851 11.7398C18.1499 11.7398 18.1187 11.745 18.0843 11.7454C18.0499 11.745 18.0183 11.7398 17.9835 11.7398C17.9107 11.7398 17.8399 11.7485 17.7711 11.7633C14.3403 12.0051 13.0739 15.1746 12.649 16.2462C12.017 17.8403 11.1102 19.1552 10.4442 19.4436C7.59819 20.6769 5.89057 23.6616 6.29258 26.7017C6.66058 29.4893 8.6946 31.4905 11.6002 31.9243C11.9402 31.9749 12.283 32 12.6254 32C13.5595 32 14.4935 31.8124 15.3727 31.4443C15.7571 31.2834 16.1051 31.0966 16.4411 30.9161C17.0223 30.6038 17.5307 30.3333 18.0847 30.2708C18.6387 30.3333 19.1475 30.6038 19.7287 30.9161C20.0647 31.0966 20.4119 31.2838 20.7963 31.4443C21.6755 31.8124 22.61 32 23.544 32C23.8864 32 24.2292 31.9749 24.5692 31.9243C27.4748 31.4905 29.5088 29.4893 29.8772 26.7017C30.2776 23.6612 28.5704 20.6765 25.724 19.4432Z" fill="#6D6AD4" fill-opacity="0.2"/>
<path d="M9.19905 14.3995C8.79904 11.6454 6.73782 9.56885 4.40419 9.56885C4.21699 9.56885 4.02819 9.58239 3.84259 9.60908C1.32536 9.97157 -0.367858 12.7105 0.0685464 15.7148C0.468551 18.4685 2.52977 20.545 4.8634 20.545C5.0506 20.545 5.2394 20.5315 5.42541 20.5048C7.94223 20.1415 9.63545 17.4029 9.19905 14.3995Z" fill="#6D6AD4" fill-opacity="0.2"/>
<path d="M12.1623 11.0088C14.7055 11.0088 16.7751 8.53955 16.7751 5.50462C16.7751 2.46969 14.7055 0 12.1623 0C9.61866 0 7.54944 2.46929 7.54944 5.50422C7.54944 8.53915 9.61866 11.0088 12.1623 11.0088Z" fill="#6D6AD4" fill-opacity="0.2"/>
<path d="M34.9697 11.482C34.1701 10.332 33.0289 9.65129 31.7568 9.56525C29.212 9.39078 26.9852 11.7302 26.78 14.7452C26.6828 16.1713 27.0428 17.5515 27.7944 18.6318C28.594 19.7818 29.7352 20.4626 31.0076 20.5486C31.0968 20.555 31.1856 20.5574 31.274 20.5574C33.7165 20.5574 35.7861 18.2781 35.9845 15.3686C36.0813 13.9426 35.7213 12.5623 34.9697 11.482Z" fill="#6D6AD4" fill-opacity="0.2"/>
<path d="M23.8536 11.0088C26.3968 11.0088 28.4664 8.53955 28.4664 5.50462C28.4664 2.46969 26.3972 0 23.8536 0C21.3099 0 19.2407 2.46929 19.2407 5.50422C19.2407 8.53915 21.3103 11.0088 23.8536 11.0088Z" fill="#6D6AD4" fill-opacity="0.2"/>
</svg>
